<?xml version="1.0" encoding="utf-8"?>
<!-- Generator: $$$/GeneralStr/196=Adobe Illustrator 27.6.0, SVG Export Plug-In . SVG Version: 6.00 Build 0)  -->
<svg version="1.1" id="Ebene_1" xmlns="http://www.w3.org/2000/svg" xmlns:xlink="http://www.w3.org/1999/xlink" x="0px" y="0px"
	 viewBox="0 0 965.95 311.98" style="enable-background:new 0 0 965.95 311.98;" xml:space="preserve">
<style type="text/css">
	.st0{fill:#FFFFFF;}
</style>
<g>
	<path class="st0" d="M134.47,114.42l-12.15,80.48c18.62-0.21,25.48-24.52,27.73-39.4C152.64,138.31,153.05,114.42,134.47,114.42z"
		/>
	<path class="st0" d="M16.4,16.14v278.28h933.05V16.14H16.4z M524.17,51.18l-6.97,44.89l-71.76-21.09L524.17,51.18z M111.36,233.05
		H75.79L99.65,75.01h32.77c46.36,0,66.72,30.6,59.5,78.39C180.91,226.34,136.14,233.05,111.36,233.05z M192.04,233.05l23.87-158.03
		h40.76l-23.86,158.03H192.04z M343,112.32h-34.97l-3.32,22.01h31.38l-5.64,37.31h-31.37l-3.64,24.1h34.97l-5.63,37.31h-75.74
		L272.9,75.01h75.73L343,112.32z M440.43,233.05h-71.34l23.87-158.03h40.76l-18.23,120.73h30.57L440.43,233.05z M455.1,233.05
		l20.11-129.1h40.76l-20.11,129.1H455.1z M579.5,233.05l-17.07-90.75c-1.25,14.88-1.67,29.55-3.91,44.43l-7,46.32h-39.17
		l23.87-158.03h38.77l18.66,94.74c1.16-18.24,0.88-36.26,3.63-54.49l6.08-40.24h39.17l-23.87,158.03H579.5z M701.16,233.05
		l-14.63-72.52l-10.95,72.52h-40.77l23.87-158.03h40.76l-9.96,67.28l32.54-67.28h42.96L720.9,151.3l24.02,81.74H701.16z
		 M839.85,134.33l-5.64,37.31h-31.37l-3.64,24.1h34.97l-5.63,37.31H752.8l23.87-158.03h75.74l-5.64,37.31H811.8l-3.32,22.01H839.85z
		 M897.24,211.67c-2.1,13.21-14.7,23.69-27.95,23.69c-13.46,0-22.25-10.9-20.11-24.31c2.03-12.79,14.49-23.69,26.9-23.69
		C889.74,187.35,899.47,197.62,897.24,211.67z"/>
</g>
</svg>
